<?xml version="1.0"?>
<svg xmlns="http://www.w3.org/2000/svg" xmlns:xlink="http://www.w3.org/1999/xlink" xmlns:svgjs="http://svgjs.com/svgjs" version="1.1" width="512" height="512" x="0" y="0" viewBox="0 0 512.002 512.002" style="enable-background:new 0 0 512 512" xml:space="preserve" class=""><g><g xmlns="http://www.w3.org/2000/svg"><g><path d="m255.932 93.516-156.688 114.027 59.85 184.498h193.677l59.849-184.498z" fill="#7affe5" data-original="#7affd5" style="" class=""/><path d="m255.932 504.501 147.222-42.956-50.384-69.504h-193.677l-50.383 69.504z" fill="#15aa86" data-original="#15aa78" style="" class=""/><path d="m255.932 504.501 147.222-42.956-50.384-69.504h-193.677l-50.383 69.504z" fill="#15aa86" data-original="#15aa78" style="" class=""/><path d="m255.932 475.289-147.222-13.744 147.222 42.956 147.222-42.956z" fill="#139682" data-original="#13966a" style="" class=""/><path d="m111.593 59.503-93.897 121.428 81.548 26.568 156.688-114.027-.026-85.893z" fill="#1ee3bc" data-original="#1ee3a5" style="" class=""/><path d="m400.271 59.426 93.898 121.428-81.549 26.567-156.688-114.026.026-85.893z" fill="#36ffe1" data-original="#36ffc0" style="" class=""/><g><path d="" fill="#36ffe1" data-original="#36ffc0" style="" class=""/></g><path d="m489.542 334.5-86.358 126.919-50.383-69.504 59.96-184.462 81.581-26.469z" fill="#1ee3bc" data-original="#1ee3a5" style="" class=""/><path d="m494.342 180.984-34.762 145.218-56.395 135.217 86.357-126.919z" fill="#1cd1ad" data-original="#1cd198" style="" class=""/><path d="m22.458 334.54 86.358 126.919 50.384-69.505-59.961-184.462-81.58-26.469z" fill="#36ffe1" data-original="#36ffc0" style="" class=""/></g><path d="m499.689 175.734-93.486-120.897c-.873-1.129-2.05-1.986-3.394-2.469l-144.312-51.923c-2.006-.724-4.114-.533-5.882.348l-143.561 51.653c-1.343.482-2.521 1.34-3.394 2.469l-93.898 121.428c-1.047 1.355-1.653 3.223-1.6 4.914l4.799 153.517c.044 1.425.494 2.807 1.295 3.984l85.597 125.801c.888 2.02 2.617 3.563 4.755 4.187l147.222 42.956c1.4.4 2.801.4 4.201 0l147.223-42.956c1.918-.56 3.504-1.863 4.454-3.582l34.46-50.646c5.456-8.017-6.944-16.452-12.402-8.438l-28.835 42.378-41.855-57.74 57.666-177.404 67.776-22.081-4.404 140.851-29.616 43.526c-5.294 7.779 6.703 16.815 12.402 8.438l30.843-45.33c.801-1.178 1.251-2.56 1.295-3.984l4.8-153.517c.067-2.128-.765-4.074-2.149-5.483zm-383.5-109.914 132.221-47.573.021 71.408-63.269 46.043c-7.84 5.706.985 17.834 8.826 12.129l61.997-45.117 147.941 107.66-56.615 174.17h-182.635l-56.618-174.18 53.92-39.239c7.841-5.707-.983-17.831-8.826-12.129l-55.225 40.188-67.786-22.084zm-90.703 125.537 67.802 22.089 57.585 177.155-41.884 57.78-79.103-116.256zm230.446 305.332-134.901-39.361 41.89-57.787h186.024l41.89 57.787zm158.006-297.585-150.507-109.528-.021-71.423 132.265 47.59 86.048 111.278z" fill="#040404" data-original="#000000" style="" class=""/></g></g></svg>
